<?xml version="1.0" encoding="iso-8859-1"?>
<!-- Generator: Adobe Illustrator 16.0.0, SVG Export Plug-In . SVG Version: 6.00 Build 0)  -->
<!DOCTYPE svg PUBLIC "-//W3C//DTD SVG 1.1//EN" "http://www.w3.org/Graphics/SVG/1.1/DTD/svg11.dtd">
<svg version="1.1" id="Capa_1" xmlns="http://www.w3.org/2000/svg" xmlns:xlink="http://www.w3.org/1999/xlink" x="0px" y="0px"
	 width="604.051px" height="604.051px" viewBox="0 0 604.051 604.051" style="enable-background:new 0 0 604.051 604.051;"
	 xml:space="preserve">
<g>
	<g>
		<path d="M545.412,198.294H323.445v-97.301c0-11.83-9.59-21.42-21.419-21.42c-11.83,0-21.42,9.59-21.42,21.42v97.301H58.64
			c-32.058,0-58.14,26.082-58.14,58.14v209.904c0,32.059,26.082,58.139,58.14,58.139h486.772c32.059,0,58.139-26.08,58.139-58.139
			V256.435C603.551,224.376,577.471,198.294,545.412,198.294z M560.711,466.339c0,8.449-6.85,15.299-15.299,15.299H58.64
			c-8.45,0-15.3-6.85-15.3-15.299V256.435c0-8.45,6.85-15.3,15.3-15.3h486.772c8.449,0,15.299,6.851,15.299,15.3V466.339
			L560.711,466.339z"/>
		<path d="M545.412,524.978H58.64C26.306,524.978,0,498.672,0,466.339V256.435c0-32.334,26.306-58.64,58.64-58.64h221.466v-96.801
			c0-12.087,9.833-21.92,21.92-21.92c12.086,0,21.919,9.833,21.919,21.92v96.801h221.467c32.333,0,58.639,26.306,58.639,58.64
			v209.904C604.051,498.672,577.745,524.978,545.412,524.978z M58.64,198.794c-31.783,0-57.64,25.857-57.64,57.64v209.904
			c0,31.782,25.857,57.639,57.64,57.639h486.772c31.782,0,57.639-25.856,57.639-57.639V256.435c0-31.783-25.856-57.64-57.639-57.64
			H322.945v-97.801c0-11.535-9.385-20.92-20.919-20.92c-11.535,0-20.92,9.385-20.92,20.92v97.801H58.64z M545.412,482.138H58.64
			c-8.712,0-15.8-7.087-15.8-15.799V256.435c0-8.712,7.088-15.8,15.8-15.8h486.772c8.712,0,15.799,7.088,15.799,15.8v209.904
			C561.211,475.051,554.124,482.138,545.412,482.138z M58.64,241.634c-8.161,0-14.8,6.64-14.8,14.8v209.904
			c0,8.16,6.639,14.799,14.8,14.799h486.772c8.16,0,14.799-6.639,14.799-14.799V256.435c0-8.161-6.639-14.8-14.799-14.8H58.64z"/>
	</g>
	<g>
		<path d="M230.178,339.966h-41.612v-41.612c0-8.45-6.85-15.3-15.3-15.3h-12.24c-8.45,0-15.3,6.85-15.3,15.3v41.612h-41.613
			c-8.45,0-15.3,6.852-15.3,15.301v12.24c0,8.449,6.85,15.299,15.3,15.299h41.613v41.613c0,8.449,6.85,15.299,15.3,15.299h12.24
			c8.45,0,15.3-6.85,15.3-15.299v-41.613h41.612c8.45,0,15.3-6.85,15.3-15.299v-12.24
			C245.478,346.817,238.627,339.966,230.178,339.966z"/>
		<path d="M173.265,440.218h-12.24c-8.712,0-15.8-7.087-15.8-15.799v-41.113h-41.113c-8.712,0-15.8-7.087-15.8-15.799v-12.24
			c0-8.713,7.088-15.801,15.8-15.801h41.113v-41.112c0-8.712,7.088-15.8,15.8-15.8h12.24c8.712,0,15.8,7.088,15.8,15.8v41.112
			h41.112c8.712,0,15.8,7.088,15.8,15.801v12.24c0,8.712-7.088,15.799-15.8,15.799h-41.112v41.113
			C189.065,433.131,181.978,440.218,173.265,440.218z M104.113,340.466c-8.161,0-14.8,6.64-14.8,14.801v12.24
			c0,8.16,6.639,14.799,14.8,14.799h42.113v42.113c0,8.16,6.639,14.799,14.8,14.799h12.24c8.161,0,14.8-6.639,14.8-14.799v-42.113
			h42.112c8.161,0,14.8-6.639,14.8-14.799v-12.24c0-8.161-6.639-14.801-14.8-14.801h-42.112v-42.112c0-8.161-6.639-14.8-14.8-14.8
			h-12.24c-8.161,0-14.8,6.639-14.8,14.8v42.112H104.113z"/>
	</g>
	<g>
		<circle cx="429.895" cy="409.694" r="21.42"/>
		<path d="M429.895,431.614c-12.087,0-21.92-9.833-21.92-21.92s9.833-21.92,21.92-21.92s21.92,9.833,21.92,21.92
			S441.981,431.614,429.895,431.614z M429.895,388.774c-11.535,0-20.92,9.385-20.92,20.92s9.385,20.92,20.92,20.92
			s20.92-9.385,20.92-20.92S441.43,388.774,429.895,388.774z"/>
	</g>
	<g>
		<circle cx="429.895" cy="313.765" r="21.42"/>
		<path d="M429.895,335.685c-12.087,0-21.92-9.833-21.92-21.919c0-12.087,9.833-21.92,21.92-21.92s21.92,9.833,21.92,21.92
			C451.814,325.852,441.981,335.685,429.895,335.685z M429.895,292.845c-11.535,0-20.92,9.385-20.92,20.92
			s9.385,20.919,20.92,20.919s20.92-9.384,20.92-20.919S441.43,292.845,429.895,292.845z"/>
	</g>
	<g>
		<circle cx="381.93" cy="361.729" r="21.42"/>
		<path d="M381.93,383.649c-12.087,0-21.92-9.833-21.92-21.92s9.833-21.92,21.92-21.92s21.92,9.833,21.92,21.92
			S394.017,383.649,381.93,383.649z M381.93,340.81c-11.535,0-20.92,9.385-20.92,20.92s9.385,20.92,20.92,20.92
			s20.92-9.385,20.92-20.92S393.465,340.81,381.93,340.81z"/>
	</g>
	<g>
		<circle cx="477.859" cy="361.729" r="21.42"/>
		<path d="M477.859,383.649c-12.087,0-21.92-9.833-21.92-21.92s9.833-21.92,21.92-21.92s21.92,9.833,21.92,21.92
			S489.946,383.649,477.859,383.649z M477.859,340.81c-11.535,0-20.92,9.385-20.92,20.92s9.385,20.92,20.92,20.92
			s20.92-9.385,20.92-20.92S489.395,340.81,477.859,340.81z"/>
	</g>
</g>
<g>
</g>
<g>
</g>
<g>
</g>
<g>
</g>
<g>
</g>
<g>
</g>
<g>
</g>
<g>
</g>
<g>
</g>
<g>
</g>
<g>
</g>
<g>
</g>
<g>
</g>
<g>
</g>
<g>
</g>
</svg>
